<svg width="126" height="63" viewBox="0 0 126 63" fill="none" xmlns="http://www.w3.org/2000/svg">
    <path fill-rule="evenodd" clip-rule="evenodd" d="M61.475 38.785l2.014.016v5.854h-2.014v-5.87zm22.235 1.086v-.928h.393c.095 0 .173.015.22.031a.212.212 0 01.11.094.254.254 0 01.048.142.236.236 0 01-.063.173.236.236 0 01-.189.079c.047.031.079.047.094.078a.837.837 0 01.11.158l.11.189h-.22l-.141-.205c-.047-.079-.079-.11-.095-.142-.015-.015-.031-.031-.063-.031-.015 0-.047-.016-.094-.016h-.031v.394h-.19v-.016zm.173-.535h.141c.095 0 .142 0 .174-.016.015 0 .047-.016.047-.031.015-.016.015-.047.015-.063a.12.12 0 00-.031-.079.119.119 0 00-.063-.031h-.283v.22zm-37.955-20.19c-.11.174-.944 2.786-.976 3.022l1.92-.016c-.063-.393-.33-1.133-.456-1.542-.08-.283-.331-1.337-.488-1.463zm7.223 13.55c.094-.41-.08-.331-.457-.331-.283 0-.582-.032-.865.031-.394.095-.897.394-.693.96.236.614 1.731.677 2.014-.66zm-1.873 7.411c-1.558.393-1.306 3.73.708 3.21 1.448-.378 1.243-3.698-.708-3.21zm15.154 1.054h2.218c.063-1.7-2.266-1.605-2.218 0zm6.64-9.662c.079-.723-.425-1.227-1.101-1.227-.645 0-1.18.55-1.102 1.243l2.203-.016zm-9.378-9.662l2.234.016c.047-.708-.41-1.227-1.102-1.227-.676-.016-1.211.535-1.132 1.211zm20.677.897c-1.464.315-.63 1.81.55 1.275.347-.157.646-.55.74-1.007.079-.378-.11-.299-.456-.315-.315 0-.551-.015-.834.047zm.362 16.964c.361-.944-.976-1.464-1.275-.55-.315.943.928 1.447 1.275.55zm-33.77-.992c1.999-.299 3.667.693 3.981 2.36.394 2.062-.928 3.431-2.69 3.667-4.768.677-5.571-5.381-1.29-6.026zm18.978 5.713c-1.495.535-3.226.55-4.438-.33-1.007-.74-1.526-2.456-.77-3.935 1.18-2.266 6.042-2.407 5.727 2.14l-4.013.016c-.031.66.693 1.039 1.37 1.101 1.132.11 1.636-.299 2.14-.393l-.016 1.4zm1.935-6.956c.394-.11 1.652-.566 1.983-.582v1.888c.362.048.74.016 1.102.016.44 0 .346.047.314 1.416l-1.369.032c0 .016-.016.031-.016.047-.047.22-.031.299-.031.52 0 .944-.189 2.328.425 2.58.409.173.645-.031 1.007.031l.063 1.26c-1.228.314-2.722.157-3.226-.677-.55-.913-.11-2.66-.299-3.777l-1.149-.031c0-.284-.078-1.165.032-1.338.126-.126.787.032 1.164-.079v-1.306zm11.96 1.055c.55-.205 1.038.204 1.164.582.189.55-.141 1.086-.566 1.227-1.18.394-1.904-1.337-.598-1.81zm-23.321 6.026c-1.259.284-2.376.425-3.525-.188-.85-.457-1.526-1.29-1.51-2.66.015-2.942 3.304-3.509 5.02-2.722l-.158 1.463c-.567-.22-1.165-.503-1.904-.157-1.385.645-1.196 3.21 1.117 3.006.41-.032.614-.174.944-.22l.016 1.478zm15.862.976c.409-.031.676.205 1.196.016.283-.11.63-.456.613-.755-.015-.252-2.313-5.665-2.313-5.996.378-.016 1.888-.094 2.109.032.204.157 1.086 3.477 1.306 3.729.157-.22.52-1.51.63-1.873.11-.346.487-1.668.613-1.888h1.967c-.047.33-.834 2.219-1.023 2.691-.346.897-.692 1.747-1.038 2.644-.787 1.967-1.29 3.572-4.139 2.895-.079-.252.047-1.164.079-1.495zm-14.902-9.174l2.014.016-.016 1.463H61.46l.016-1.479zm-19.34 6.405c.11 0 .693.251.929.314.834.22 2.927.394 2.502-.865-.252-.756-2.487-.834-3.226-1.747-.96-1.212-.661-3.76 2.8-3.808.52 0 1.826.063 2.188.315l-.126 1.495c-.078.047-.015.047-.157.031l-.818-.22c-2.266-.362-2.502.692-1.904 1.149.361.283 1.321.456 1.84.645.646.252 1.134.55 1.385 1.101.284.598.284 1.448.032 2.062-.897 2.203-5.067 1.542-5.602 1.196l.157-1.668zm32.228-7.994c-1.306.582-3.305.503-4.406-.3-1.023-.739-1.59-2.454-.787-3.98 1.259-2.408 6.215-2.11 5.728 2.155h-4.013c-.032.724.692 1.07 1.385 1.118 1.211.078 1.542-.284 2.093-.394v1.4zm-16.397-4.642c.141-.048.094-.048.204-.205.819-1.212 2.911-1.227 3.73-.157.535.692.472 1.432.472 2.392 0 .912.031 1.904 0 2.832h-1.999c-.141-2.03.488-4.406-1.101-4.28-1.558.11-1.039 2.848-1.117 4.296l-2.015-.016.016-5.838 1.825.016-.015.96zm-7.994-.708c.566-.315 1.762-.441 2.517-.41 3.006.11 2.597 2.392 2.597 4.642 0 .488.079.897.079 1.338-.315.016-1.605.047-1.841-.031 0-.19.015-.614-.095-.771-.346.267-.676 1.148-2.266.928-2.156-.3-2.329-2.77-.614-3.51.992-.424 1.716-.267 2.817-.267.11-1.18-1.573-1.07-2.36-.88-.236.062-.708.267-.834.267v-1.306zm18.222 5.46c-2.486.787-5.051-.236-5.036-2.833.016-2.549 2.644-3.682 5.02-2.738l-.157 1.448c-.425-.11-1.102-.535-1.936-.142-1.117.535-1.195 2.377.142 2.896.897.346 1.652-.11 1.936-.11l.031 1.479zm9.41-4.752c.33-.142.425-1.4 2.408-1.07.047.157-.016 1.463-.063 1.652-.504.047-1.763-.315-2.093 1.149-.189.802-.031 2.203-.079 3.131h-2.014l.016-5.854 1.825.016v.976zm-28.938 4.658c-.756.503-6.861 1.211-6.83-3.73.016-1.81.834-2.943 2.077-3.556 1.511-.74 3.163-.551 4.737-.11l-.157 1.652c-.174 0-.457-.173-.661-.252-1.92-.692-3.824.095-3.84 2.25-.016 1.873 1.48 2.707 3.1 2.502.74-.094 1.149-.299 1.48-.346l.094 1.59zM73.544 19.46l2.014.016-.015 5.854-1.999-.016v-5.854zm-28.86-1.998l2.534.016c.189.267.645 1.589.771 1.967.252.645.488 1.258.74 1.935.236.63 1.463 3.572 1.479 3.95l-2.25-.016c-.158-.44-.425-1.353-.598-1.668h-2.927l-.645 1.668-2.093-.016 2.99-7.836zm22.519 7.632c-1.448.566-3.305.52-4.438-.33-.991-.756-1.542-2.44-.74-3.966.913-1.747 4.186-2.187 5.32-.079.283.535.487 1.527.393 2.266l-4.013.016c.016.74.645 1.039 1.4 1.117 1.086.095 1.464-.252 2.078-.409v1.385zm23.305-4.627c.157-.094.078-.063.189-.22.062-.079.094-.142.141-.189.834-.975 2.77-.991 3.54 0 .536.677.504 1.37.504 2.392 0 .819.079 2.109-.016 2.88h-1.982c-.205-1.857.52-4.438-1.086-4.312-1.62.142-1.039 2.864-1.133 4.312l-2.014-.016.016-5.854 1.81.016.03.991zm-37.767-.031c.173-.079.11-.063.22-.205.662-.96 2.157-1.133 3.038-.629.598.346.519.66.802.787.551-1.165 3.021-1.542 3.761-.284.394.661.346 1.59.346 2.44 0 .865.047 1.92-.015 2.785l-1.999-.016c-.126-1.967.472-4.5-1.007-4.28-1.385.204-.865 2.943-.976 4.312l-1.998-.016c-.173-1.936.503-4.5-1.007-4.296-1.416.204-.897 2.974-.976 4.312l-2.014-.016.016-5.854 1.81.016v.944zm29.71-.677c.456-.346 1.794-.456 2.502-.44 3.053.11 2.628 2.392 2.628 4.658 0 .472.078.88.094 1.337l-1.84-.031-.064-.834c-.315.22-.614 1.148-2.297.96-2.125-.252-2.345-2.738-.614-3.51.944-.424 1.778-.298 2.832-.251-.031-1.228-1.573-1.07-2.407-.866-.315.079-.55.22-.787.283l-.047-1.306zm-11.944.677c.457-.866 1.007-1.275 2.36-1.039l-.11 1.668c-.535-.015-.944-.125-1.4.142-1.117.645-.692 2.612-.755 4.139h-2.03l.015-5.87 1.826.032c.016.157.016.314 0 .472 0 .535.031.377.094.456zm10.653 4.752c-.393.22-1.337.284-1.872.268-3.65-.11-4.139-4.438-1.59-5.728.787-.393 2.676-.645 3.431-.063l-.142 1.416c-.346-.063-.519-.236-.96-.267-2.517-.19-2.439 3.43.19 3.147.377-.047.597-.173.912-.22l.031 1.447zm-7.616-8.167l2.014.016-.015 1.463h-1.999v-1.479zM18.94 4.04h18.113l.015 54.4h54.478L109.58 3.96H18.94v.08z" fill="#23408A"/>
    <path fill-rule="evenodd" clip-rule="evenodd" d="M29.263 47.818l.016 1.447c.567.41.818 1.4.252 2.062-.551.645-1.574.488-2.077-.016-.347-.346-.3-.614-.3-1.18 0-.158-.015-.63 0-.74.048-.204 2.078-1.573 2.11-1.573zm1.873-2.55c-.189.598-2.046 1.889-2.644 2.345-.393.299-1.101.913-1.51.991-.803.142-1.464-.425-1.212-1.274.126-.44 2.203-1.92 2.675-2.298.346-.267 1.086-.897 1.495-.991.818-.189 1.463.393 1.196 1.227zm.74-3.98c-.142.424-.41.581-.709.833-1.227 1.007-3.1 2.565-4.311 3.446-.74.535-1.889.047-1.605-1.07.11-.425.409-.598.692-.834.488-.393 4.013-3.257 4.312-3.446.818-.52 1.95.063 1.62 1.07zm-3.683-3.541c-1.369-.992-1.038-.677-1.038-2.77V15.842c0-1.259-.048-2.58 0-3.824.015-.299.85-2.455 1.038-2.722.126.079 1.039 2.329 1.07 2.55.063.345.016 19.401.016 21.557 0 1.15.047 2.44-.016 3.572-.299.19-.85.709-1.07.771zm-1.747-2.723c-1.18.488-2.423-.897-2.407.268.252.173 3.462 2.722 3.588 2.864-.063.126-1.37 1.164-1.59 1.258-.22-.078-1.542-1.164-1.872-1.416-.362-.283-1.574-1.148-1.81-1.479-.928-1.259-.44-3.792 1.936-3.792h2.014c-.095.393-.677.912-.598 1.18.063.22.66.818.74 1.117zm3.635-2.329c1.385-.078 3.132-.267 3.919.976.315.488.52 1.275.377 1.967-.173.77-.535 1.023-1.054 1.432-1.888 1.463-3.65 2.895-5.539 4.359-.503.377-.897.708-1.369 1.07-.267.204-.472.377-.913.346-.755-.063-1.117-.928-.787-1.51.205-.347 7.507-5.902 7.585-6.059.016-.252-.078-.362-.189-.488-.597-.063-1.431.693-2.155.205.094-.19.692-.945.74-1.102.078-.236-.552-.865-.615-1.196zM18.941 58.44h18.127L37.053 4.04H18.94v54.4z" fill="#C5212D"/>
    <path fill-rule="evenodd" clip-rule="evenodd" d="M52.741 20.437v-.96l-1.81-.015-.015 5.853 2.014.016c.079-1.322-.425-4.107.976-4.311 1.51-.205.818 2.36 1.007 4.295l1.998.016c.095-1.353-.409-4.091.976-4.311 1.48-.22.881 2.313 1.007 4.28l1.999.015c.063-.85.015-1.92.015-2.785 0-.865.048-1.794-.346-2.439-.74-1.259-3.21-.897-3.76.283-.284-.141-.205-.456-.803-.787-.882-.503-2.376-.33-3.037.63-.11.173-.048.157-.22.22zM45.928 19.147c.157.126.409 1.18.488 1.48.126.408.393 1.132.456 1.541l-1.92.016c.032-.252.866-2.864.976-3.037zm-4.233 6.169l2.093.015.645-1.668h2.927c.173.315.456 1.228.598 1.668l2.25.016c-.016-.378-1.243-3.32-1.48-3.95-.251-.676-.503-1.29-.739-1.935-.141-.362-.598-1.7-.77-1.967l-2.534-.016-2.99 7.837zM42.135 42.751l-.157 1.668c.535.346 4.705 1.007 5.602-1.196.252-.614.252-1.463-.031-2.061-.252-.551-.74-.85-1.385-1.102-.52-.189-1.48-.362-1.841-.645-.598-.472-.362-1.526 1.904-1.149l.818.22c.142 0 .079.016.157-.03l.126-1.496c-.362-.236-1.668-.315-2.187-.315-3.462.048-3.76 2.597-2.801 3.809.74.912 2.974.991 3.226 1.746.425 1.26-1.668 1.086-2.502.866-.236-.063-.818-.3-.929-.315zM48.666 34.773l-.095-1.59c-.314.047-.724.252-1.479.346-1.636.205-3.116-.63-3.1-2.502.016-2.155 1.92-2.958 3.84-2.25.204.079.487.252.66.252l.158-1.652c-1.574-.457-3.226-.63-4.736.11-1.26.614-2.078 1.747-2.078 3.556-.031 4.941 6.059 4.233 6.83 3.73zM76.377 45.52c-.016.33-.158 1.243-.095 1.495 2.849.677 3.352-.928 4.139-2.895.346-.881.692-1.747 1.038-2.644.19-.472.976-2.376 1.023-2.69h-1.967c-.141.22-.519 1.541-.613 1.888-.11.361-.457 1.652-.63 1.872-.22-.236-1.101-3.572-1.306-3.73-.22-.125-1.73-.046-2.109-.03 0 .33 2.298 5.743 2.314 5.995.015.299-.33.645-.614.755-.504.189-.771-.047-1.18-.016z" fill="#fff"/>
    <path fill-rule="evenodd" clip-rule="evenodd" d="M51.278 40.107c1.967-.504 2.171 2.832.708 3.21-2.014.52-2.266-2.817-.708-3.21zm-.315-1.4c-4.296.66-3.493 6.703 1.29 6.042 1.763-.252 3.085-1.605 2.691-3.666-.299-1.7-1.967-2.691-3.98-2.377zM90.508 20.468l-.016-.99-1.81-.017-.015 5.854 2.014.016c.094-1.448-.488-4.17 1.133-4.312 1.605-.141.881 2.455 1.086 4.312h1.982c.095-.771.016-2.061.016-2.88 0-1.023.032-1.715-.503-2.392-.771-.991-2.707-.975-3.541 0-.047.063-.094.11-.142.19-.11.172-.047.125-.204.22zM57.966 30.115v-.976l-1.826-.015-.016 5.838 2.015.015c.078-1.432-.44-4.17 1.117-4.296 1.59-.126.96 2.25 1.102 4.28h1.998c.047-.928 0-1.904 0-2.832 0-.96.047-1.7-.472-2.392-.818-1.07-2.895-1.054-3.73.158-.094.173-.047.157-.188.22zM84.37 22.735c.284-.063.52-.047.835-.047.346.015.535-.063.456.314-.094.457-.393.834-.74 1.007-1.18.551-2.014-.944-.55-1.274zm-1.92-2.974l.017 1.321c.236-.063.472-.204.787-.283.834-.204 2.376-.346 2.407.866-1.054-.032-1.888-.158-2.832.251-1.731.756-1.495 3.258.613 3.51 1.7.204 1.983-.74 2.298-.96l.063.834 1.84.031c-.015-.456-.094-.865-.094-1.337 0-2.266.425-4.548-2.628-4.658-.66-.032-2.014.078-2.47.425zM53.15 32.695c-.283 1.338-1.778 1.29-2.014.661-.204-.55.3-.865.693-.96.267-.063.582-.031.865-.031.393 0 .55-.079.456.33zm-3.178-3.289l.015 1.322c.126 0 .598-.22.834-.267.787-.19 2.471-.3 2.36.881-1.1-.016-1.84-.157-2.816.268-1.715.723-1.542 3.21.614 3.509 1.59.22 1.935-.661 2.266-.929.094.157.079.598.094.771.236.079 1.527.047 1.841.032-.015-.44-.094-.85-.078-1.338 0-2.25.425-4.532-2.597-4.642-.77-.047-1.983.079-2.533.393zM73.072 31.5H70.87a1.106 1.106 0 011.102-1.244c.692.016 1.18.504 1.101 1.244zm1.29 3.257v-1.385c-.566.11-.88.488-2.092.394-.693-.048-1.417-.394-1.385-1.118h4.013c.487-4.28-4.47-4.579-5.728-2.156-.787 1.527-.236 3.226.787 3.982 1.117.786 3.1.865 4.406.283zM66.432 41.161c-.063-1.605 2.266-1.683 2.218 0h-2.218zm3.509 3.258l.016-1.385c-.504.094-1.008.504-2.14.393-.677-.063-1.385-.44-1.37-1.101l4.013-.016c.33-4.548-4.548-4.406-5.728-2.14-.771 1.48-.236 3.179.771 3.934 1.196.865 2.943.85 4.438.315zM63.694 21.838c-.079-.661.456-1.228 1.117-1.228.692 0 1.164.52 1.101 1.228h-2.218zm3.509 3.257V23.71c-.63.158-.992.504-2.077.41-.756-.063-1.385-.378-1.4-1.118l4.012-.015c.11-.74-.11-1.731-.394-2.266-1.117-2.11-4.406-1.669-5.318.078-.803 1.527-.252 3.21.74 3.966 1.117.85 2.989.897 4.437.33zM71.876 37.463l-.015 1.275c-.378.11-1.039-.047-1.165.079-.11.188-.031 1.054-.031 1.337l1.148.032c.19 1.117-.251 2.88.3 3.776.503.834 1.998.976 3.225.677l-.063-1.259c-.362-.047-.598.142-1.007-.031-.614-.252-.425-1.637-.425-2.581 0-.22-.015-.315.032-.52 0-.015 0-.03.016-.047l1.369-.031c.031-1.37.125-1.416-.315-1.416-.362 0-.755.031-1.102-.016V36.85c-.314.047-1.573.487-1.967.613zM81.16 25.19l-.031-1.449c-.33.048-.55.19-.913.22-2.628.284-2.706-3.335-.189-3.146.44.031.614.204.96.267l.142-1.416c-.755-.582-2.644-.33-3.43.063-2.566 1.29-2.078 5.617 1.589 5.728.535.015 1.479-.047 1.872-.268zM68.194 34.867l-.016-1.464c-.299 0-1.038.457-1.935.11-1.353-.519-1.259-2.36-.142-2.895.819-.393 1.51.032 1.936.142l.157-1.448c-2.376-.944-5.004.189-5.02 2.738-.031 2.58 2.534 3.604 5.02 2.817zM60.515 44.545l-.016-1.48c-.33.048-.535.19-.944.22-2.313.205-2.502-2.375-1.117-3.005.74-.346 1.322-.063 1.904.158l.157-1.464c-1.715-.802-4.988-.22-5.02 2.722-.015 1.354.661 2.204 1.51 2.66 1.165.613 2.283.472 3.526.189zM70.507 20.437c-.078-.079-.11.078-.094-.472v-.472l-1.825-.032-.016 5.87h2.03c.063-1.527-.362-3.494.755-4.139.456-.267.881-.157 1.4-.142l.11-1.668c-1.337-.22-1.903.19-2.36 1.055zM77.604 30.115v-.976l-1.825-.015-.016 5.853h2.014c.047-.912-.11-2.329.079-3.131.33-1.464 1.59-1.102 2.093-1.149.047-.173.11-1.495.063-1.652-1.999-.33-2.078.928-2.408 1.07zM61.475 44.639h2.014V38.8l-2.014-.016v5.854z" fill="#fff"/>
    <path fill-rule="evenodd" clip-rule="evenodd" d="M73.529 25.315l2.014.016.015-5.854-2.014-.016-.015 5.854zM61.475 37.81l1.998.015.016-1.463-2.014-.016v1.464zM73.544 18.502h1.983l.032-1.464-2.015-.015v1.479zM84.733 39.698c-.347.897-1.59.393-1.275-.551.315-.897 1.636-.393 1.275.55zm-.897-1.18c-1.306.472-.583 2.218.598 1.81.424-.143.755-.678.566-1.228-.126-.378-.614-.787-1.164-.583z" fill="#fff"/>
</svg>