<svg width="188" height="91" viewBox="0 0 188 91" fill="none" xmlns="http://www.w3.org/2000/svg">
<path d="M81.2896 48.5468C81.2896 48.5468 84.582 47.4244 84.582 43.6831C84.582 39.3057 81.4766 37.1357 77.2115 37.1357H66.0249V60.9307H78.1843C81.9256 60.9307 85.5921 58.3117 85.5921 54.3085C85.5921 49.557 81.2896 48.5842 81.2896 48.5468ZM71.8614 42.0743H76.2013C77.5482 42.0743 78.4462 42.9722 78.4462 44.3191C78.4462 45.3667 77.6231 46.4891 76.0891 46.4891H71.824V42.0743H71.8614ZM76.2388 55.9547H71.8988V51.278H76.1265C78.2591 51.278 79.2692 52.2133 79.2692 53.5976C79.2692 55.3187 77.9972 55.9547 76.2388 55.9547Z" fill="#E20015"/>
<path d="M98.4623 36.5371C91.5782 36.5371 87.5376 42.0369 87.5376 48.9958C87.5376 55.9921 91.5782 61.4544 98.4623 61.4544C105.384 61.4544 109.387 55.9921 109.387 48.9958C109.387 42.0369 105.384 36.5371 98.4623 36.5371ZM98.4623 55.7676C95.0951 55.7676 93.4115 52.7371 93.4115 48.9958C93.4115 45.2544 95.0951 42.2614 98.4623 42.2614C101.83 42.2614 103.551 45.2918 103.551 48.9958C103.551 52.7371 101.83 55.7676 98.4623 55.7676Z" fill="#E20015"/>
<path d="M122.07 46.4518L121.247 46.2647C119.227 45.8532 117.618 45.3294 117.618 43.8703C117.618 42.2989 119.152 41.6629 120.499 41.6629C122.482 41.6629 124.24 42.6356 125.363 43.8703L129.067 40.2037C127.383 38.2957 124.652 36.4624 120.387 36.4624C115.373 36.4624 111.594 39.2684 111.594 43.9451C111.594 48.2102 114.662 50.3054 118.404 51.091L119.227 51.2781C122.332 51.9141 123.492 52.4005 123.492 53.897C123.492 55.3188 122.22 56.2541 120.274 56.2541C117.955 56.2541 115.86 55.2439 114.251 53.1862L110.472 56.9275C112.567 59.4342 115.224 61.3797 120.349 61.3797C124.801 61.3797 129.553 58.8356 129.553 53.6352C129.59 48.2102 125.475 47.1626 122.07 46.4518Z" fill="#E20015"/>
<path d="M142.835 55.7677C140.216 55.7677 137.484 53.5977 137.484 48.8462C137.484 44.6185 140.029 42.2614 142.685 42.2614C144.78 42.2614 146.015 43.2342 146.987 44.9178L151.776 41.7376C149.382 38.1085 146.539 36.5746 142.61 36.5746C135.427 36.5746 131.536 42.1492 131.536 48.8836C131.536 55.9547 135.838 61.4919 142.535 61.4919C147.249 61.4919 149.494 59.8457 151.926 56.3289L147.1 53.0739C146.127 54.6453 145.079 55.7677 142.835 55.7677Z" fill="#E20015"/>
<path d="M167.752 37.0984V45.8531H160.531V37.0984H154.283V60.8933H160.531V51.5025H167.752V60.8933H174V37.0984H167.752Z" fill="#E20015"/>
<path d="M30.0333 31C20.0813 31 12 39.0813 12 49.0333C12 58.9852 20.0813 67.0665 30.0333 67.0665C39.9852 67.0665 48.0665 58.9852 48.0665 49.0333C48.0665 39.0813 39.9852 31 30.0333 31ZM30.0333 65.3829C21.0166 65.3829 13.6836 58.0499 13.6836 49.0333C13.6836 40.0166 21.0166 32.6836 30.0333 32.6836C39.0499 32.6836 46.3829 40.0166 46.3829 49.0333C46.3829 58.0499 39.0499 65.3829 30.0333 65.3829Z" fill="#575757"/>
<path d="M37.4785 37.7719H36.2438V43.9451H23.86V37.7719H22.588C18.9589 40.2037 16.527 44.3192 16.527 49.0333C16.527 53.7474 18.9589 57.8628 22.588 60.2947H23.86V54.1215H36.2438V60.2947H37.4785C41.145 57.8628 43.5395 53.7474 43.5395 49.0333C43.5395 44.3192 41.145 40.2037 37.4785 37.7719ZM22.139 57.8628C19.6323 55.6555 18.1732 52.4753 18.1732 49.0333C18.1732 45.5913 19.6323 42.4111 22.139 40.2037V57.8628ZM36.2438 52.4005H23.86V45.6287H36.2438C36.2438 45.6661 36.2438 52.4005 36.2438 52.4005ZM37.9274 57.8254V54.0841V43.9451V40.2037C40.3967 42.4111 41.8558 45.5913 41.8558 48.9959C41.8558 52.4379 40.3967 55.618 37.9274 57.8254Z" fill="#575757"/>
</svg>
