<svg width="27" height="61" viewBox="0 0 27 61" fill="none" xmlns="http://www.w3.org/2000/svg">
<path d="M0.994629 0.842773L26.0686 1.09477V60.1573L0.994629 59.9053V0.842773Z" fill="white"/>
<path d="M20.1466 54.8022C20.2096 53.9202 20.1781 53.6052 20.0521 53.4792C19.9576 53.3532 19.8946 53.0382 19.8946 52.6287C19.8946 52.0302 19.8001 51.8097 19.1071 50.4552C18.3511 49.0062 18.3511 48.9432 18.4771 48.5652C18.6031 48.2187 18.5716 48.1242 18.3196 47.4942C18.0361 46.8642 17.9416 46.7382 17.2171 46.2657C15.8311 45.3207 14.6971 44.3757 12.8386 42.5172C10.7596 40.4697 9.02712 38.2017 7.42062 35.4297C6.85362 34.4532 6.82212 34.4217 6.31812 34.4217C5.94012 34.4217 5.49912 34.1067 5.49912 33.8232C5.49912 33.7602 5.05812 32.7522 4.49112 31.6182C3.07362 28.6572 2.94762 28.0272 3.38862 25.8852C3.64062 24.6252 3.70362 24.4992 4.23912 23.9007C4.80612 23.2707 4.71162 23.0817 3.76662 22.9872C2.50662 22.8612 2.50662 22.8612 2.25462 22.0737C2.12862 21.6642 2.03412 21.2232 2.03412 21.0657C2.03412 20.5617 2.60112 18.9552 3.38862 17.2542C3.82962 16.3407 4.36512 15.0807 4.61712 14.4507C5.49912 12.2772 6.66462 10.5132 7.64112 10.0092C8.01912 9.82024 8.77512 9.66274 11.0116 9.34774C12.2401 9.15874 12.3346 9.06424 12.5236 7.80424C12.6181 7.04824 12.6181 6.95374 12.4291 6.60724C12.3031 6.38674 12.2086 6.04024 12.2086 5.69374C12.2086 5.15824 12.2401 5.09524 12.5551 4.93774C12.8386 4.78024 12.9016 4.71724 12.9016 4.27624C12.9016 3.23674 13.1221 2.63824 13.6891 2.07124C13.8466 1.91374 14.0041 1.75624 14.0986 1.66174H6.44412C3.82962 1.66174 1.71912 3.77224 1.71912 6.38674V54.5187C1.71912 57.1332 3.82962 59.2437 6.44412 59.2437H20.4931C20.4301 59.1492 20.3356 58.9602 20.2411 58.8027C19.8946 58.3932 19.8946 58.5507 20.1466 54.8022Z" fill="#0E499D"/>
<path d="M20.7766 1.6933H16.7131C16.7446 1.7563 16.8076 1.7878 16.8706 1.8508C17.3746 2.1658 18.1306 2.9848 18.2566 3.2998C18.4456 3.7723 18.4141 4.4338 18.1306 5.1268C17.9731 5.5363 17.9101 5.8828 17.9731 6.1033C18.0676 6.5128 17.6581 7.3318 17.2171 7.7728C17.0596 7.9303 16.8076 8.2453 16.6816 8.4973C16.5556 8.7493 16.2721 9.1588 16.0201 9.4108C15.7681 9.6628 15.5791 9.9778 15.6106 10.0723C15.6421 10.1668 15.9256 10.4188 16.2721 10.6078C16.6186 10.7968 17.1226 11.1433 17.4061 11.3953C17.6896 11.6473 18.2566 12.0883 18.6661 12.3718C20.1466 13.4113 20.8711 15.2068 20.8711 17.9158C20.8711 19.1128 21.4696 21.9163 21.8791 22.7353C22.4461 23.8693 22.6666 24.4993 22.8241 25.6333C23.0446 27.0823 23.0761 27.1138 23.5171 27.3028C23.9581 27.4918 25.0921 28.4053 25.0921 28.5943C25.0921 28.6573 25.2181 28.8463 25.3441 29.0668L25.5016 29.2873V6.4183C25.5016 3.8038 23.3911 1.6933 20.7766 1.6933ZM25.4386 33.3193C25.4386 33.3823 25.1866 33.6973 24.8716 34.0123C22.7611 36.3433 19.1071 35.8078 17.7841 33.0043C17.4691 32.3113 17.4376 32.1538 17.4376 31.1773C17.4376 30.2638 17.4691 30.0433 17.7526 29.4763C18.1621 28.5943 18.9496 27.7753 19.8316 27.3658C20.2096 27.1768 20.5561 26.9878 20.5876 26.9248C20.6191 26.8933 20.2726 26.0743 19.8001 25.1608C18.7291 23.0188 18.6031 22.6408 18.1306 20.0578C17.9101 18.8923 17.7211 17.8843 17.6896 17.8213C17.5951 17.5693 17.2801 17.6638 16.5241 18.1993L15.7681 18.7033L15.0751 20.4358C14.6971 21.3808 14.3821 22.3258 14.3821 22.4833C14.3821 22.6723 14.5081 22.8928 14.6656 23.0818C15.1066 23.4913 15.2326 23.8063 15.9886 26.4523C16.5556 28.4053 16.6816 28.9723 16.5871 29.1613C16.4926 29.3503 16.5556 29.7598 16.8076 30.8308C17.1856 32.4373 17.3116 33.2878 17.5006 35.0203C17.6896 36.7843 17.8786 37.3198 18.8866 39.1153C19.5481 40.2808 19.7686 41.0053 20.2411 43.7458C20.4616 45.0058 20.6821 46.1083 20.7451 46.2028C20.8081 46.2973 21.0286 46.6438 21.2491 46.9588C21.8476 47.8408 21.9421 48.2818 21.7216 49.1323C21.6271 49.5418 21.5011 50.1088 21.4696 50.4553C21.4066 51.1168 21.6271 52.7233 21.9106 53.3848C22.0051 53.6053 22.0681 53.8888 22.0366 54.0148C22.0051 54.1408 22.1311 54.7078 22.3201 55.3378C22.9186 57.2278 22.8871 58.0153 22.1941 58.8973C22.0681 59.0548 22.0051 59.1493 21.9736 59.2123C24.0211 58.6768 25.5331 56.8498 25.5331 54.6448V33.2878C25.4701 33.2248 25.4386 33.2563 25.4386 33.3193Z" fill="#D30529"/>
<path d="M3.38867 48.6598H5.31017L6.41267 53.5423H6.44417V48.6598H8.05067V56.5663H6.19217L5.05817 51.6838H5.02667V56.5663H3.38867V48.6598Z" fill="white"/>
<path d="M8.83814 48.6598H11.4211C12.6496 48.6598 13.2166 49.4473 13.2166 50.6443C13.2166 51.4948 12.9016 52.2508 12.1771 52.4083V52.4398C13.0276 52.5343 13.3741 53.4163 13.3741 54.2353C13.3741 55.6213 12.8386 56.5663 11.3896 56.5663H8.80664V48.6598H8.83814ZM10.5391 51.7468H10.9486C11.2951 51.7468 11.4841 51.3688 11.4841 50.9593C11.4841 50.5183 11.2951 50.1403 10.9486 50.1403H10.5391V51.7468V51.7468ZM10.5391 55.0858H11.0116C11.3266 55.0858 11.6101 54.7393 11.6101 54.1093C11.6101 53.5108 11.3266 53.1643 11.0116 53.1643H10.5391V55.0858V55.0858Z" fill="white"/>
<path d="M15.1066 48.6598H17.2486L18.8551 56.5663H17.0281L16.8391 55.1803H15.4846L15.2956 56.5663H13.4686L15.1066 48.6598ZM16.1776 50.2663L15.7051 53.6053H16.6501L16.1776 50.2663Z" fill="white"/>
</svg>
