<svg width="126" height="63" viewBox="0 0 126 63" fill="none" xmlns="http://www.w3.org/2000/svg">
    <path fill-rule="evenodd" clip-rule="evenodd" d="M36.576 33.8265H39.0788C40.0553 33.8265 40.4266 34.1623 40.4266 34.9846C40.4266 35.7765 40.0551 36.1119 39.0788 36.1119H36.576V33.8265ZM32.6987 42.1443H36.5762V38.762H40.7294C43.4791 38.762 44.4691 37.148 44.4691 35.0612C44.4691 32.6388 43.4511 31.2681 40.7014 31.2681H32.6987V42.1443Z" fill="#28458E"/>
    <path fill-rule="evenodd" clip-rule="evenodd" d="M45.7478 31.2681H56.1835V33.918H49.6253V35.3805H55.7168V38.0316H49.6253V39.4938H56.1835V42.1443H45.7478V31.2681Z" fill="#28458E"/>
    <path fill-rule="evenodd" clip-rule="evenodd" d="M61.6841 33.8265H64.1867C65.163 33.8265 65.5345 34.1623 65.5345 34.9846C65.5345 35.7765 65.163 36.1119 64.1867 36.1119H61.6841V33.8265ZM57.8066 42.1443H61.6841V38.762H65.8365C68.587 38.762 69.5772 37.148 69.5772 35.0612C69.5772 32.6388 68.5592 31.2681 65.8089 31.2681H57.8066V42.1443Z" fill="#28458E"/>
    <path fill-rule="evenodd" clip-rule="evenodd" d="M73.3302 37.5287C71.433 37.2083 70.6498 35.9897 70.6498 34.4668C70.6498 31.6482 73.1386 30.8872 76.3279 30.8872C80.6999 30.8872 82.5015 32.1511 82.6392 34.4516H78.1289C78.1289 34.0097 77.8951 33.735 77.5382 33.5828C77.1943 33.4157 76.7546 33.3549 76.3279 33.3549C75.173 33.3549 74.7746 33.6744 74.7746 34.1318C74.7746 34.4359 74.8978 34.6347 75.2828 34.6953L79.9165 35.4567C81.8693 35.7765 83.0794 36.7819 83.0794 38.6247C83.0794 41.2761 81.1268 42.5252 76.7678 42.5252C73.7842 42.5252 70.5252 42.0684 70.5117 38.8693H75.1867C75.1998 39.2344 75.3242 39.4781 75.5995 39.6458C75.8874 39.7983 76.314 39.8747 76.9188 39.8747C78.1286 39.8747 78.4591 39.5088 78.4591 38.9907C78.4591 38.6709 78.28 38.3512 77.7585 38.2603L73.3302 37.5287Z" fill="#28458E"/>
    <path fill-rule="evenodd" clip-rule="evenodd" d="M84.344 31.2681H88.2212V42.1443H84.344V31.2681Z" fill="#28458E"/>
    <path fill-rule="evenodd" clip-rule="evenodd" d="M102.591 37.9097C102.344 39.3417 101.903 40.4994 100.94 41.2913C99.9922 42.0835 98.5067 42.5254 96.1422 42.5254C93.791 42.5254 89.4321 42.3422 89.4321 36.7067C89.4321 31.0701 93.791 30.8872 96.1422 30.8872C98.4791 30.8872 102.082 31.222 102.591 35.5336H98.2186C98.1085 34.7559 97.6402 33.6289 96.1422 33.6289C94.5601 33.6289 93.5566 34.4971 93.5566 36.7065C93.5566 38.9153 94.5331 39.783 95.9493 39.783C97.1733 39.783 97.9021 39.2195 98.2184 37.9095H102.591V37.9097Z" fill="#28458E"/>
    <path fill-rule="evenodd" clip-rule="evenodd" d="M107.664 36.7067C107.664 34.4971 108.669 33.6291 110.25 33.6291C111.831 33.6291 112.835 34.4973 112.835 36.7067C112.835 38.9155 111.831 39.7832 110.25 39.7832C108.669 39.783 107.664 38.9153 107.664 36.7067ZM103.539 36.7067C103.539 42.342 107.898 42.5254 110.25 42.5254C112.601 42.5254 116.96 42.3422 116.96 36.7067C116.96 31.0701 112.601 30.8872 110.25 30.8872C107.898 30.8872 103.539 31.0699 103.539 36.7067Z" fill="#28458E"/>
    <path fill-rule="evenodd" clip-rule="evenodd" d="M26.8397 31.3761C27.0901 26.1579 22.574 20.2816 16.4173 19.5552L16.4278 19.4839C22.4974 19.4839 27.1503 25.0829 27.1503 29.5C27.1445 30.4195 27.0716 30.9892 26.9417 31.4028L26.8397 31.3761ZM26.4719 32.0393C26.0681 32.531 25.5602 33.026 24.9652 33.496C23.8706 27.2227 19.2442 21.7371 15.9735 20.1359L15.9034 20.1846C19.1928 22.8746 23.1161 28.0991 24.6418 33.7421C23.9119 34.2781 23.0682 34.7715 22.136 35.172C19.032 31.6448 16.1382 24.8424 15.2056 20.5258L15.1108 20.5542C15.1318 24.7443 18.1173 31.8574 21.7581 35.3283C20.9501 35.6459 20.0812 35.8935 19.1687 36.0411C15.6788 34.6635 13.1946 30.2511 13.1946 25.731C13.1946 22.7803 14.0975 20.9549 14.2722 20.5814L14.1978 20.552C13.9865 20.8705 12.6638 22.6949 12.6638 25.8806C12.6638 30.9898 15.1925 34.895 18.5497 36.1248C17.4011 36.2493 16.1925 36.2116 14.9525 35.9566L14.9275 36.0344C15.2866 36.1662 16.505 36.6758 18.3637 36.6758C22.5678 36.6758 25.4098 34.073 26.5538 32.0946L26.4719 32.0393Z" fill="#28458E"/>
    <path fill-rule="evenodd" clip-rule="evenodd" d="M17.9435 17.6401C14.7565 17.6401 11.0195 19.9321 11.0195 22.0271C11.0195 22.8375 11.7635 23.5221 13.3033 23.5221C16.8778 23.5221 20.1987 21.075 20.1987 19.1722C20.1987 18.1709 19.2337 17.6401 17.9435 17.6401ZM19.2158 19.1131C19.2158 20.717 16.1248 22.6777 13.5409 22.6777C12.3993 22.6777 11.7825 22.23 11.7825 21.4913C11.7825 19.8643 14.9086 17.937 17.3323 17.937C18.9125 17.937 19.2158 18.7382 19.2158 19.1131Z" fill="#0096D6"/>
    <path fill-rule="evenodd" clip-rule="evenodd" d="M9.74985 22.9983C9.66026 23.1527 9.30151 23.8526 9.30151 24.5698C9.30151 25.9 10.6503 27.1348 13.1311 27.1348C17.9035 27.1348 23.4173 23.6344 23.4173 20.3852C23.4173 18.9267 22.0317 18.1337 21.0697 17.9697L21.0516 18.0266C21.3508 18.1209 22.447 18.6287 22.447 19.928C22.447 22.5169 17.5788 26.0445 12.7295 26.0445C10.873 26.0445 9.70346 25.1313 9.70346 23.8012C9.70346 23.3805 9.79136 23.1033 9.81465 23.023L9.74985 22.9983Z" fill="#EB7B30"/>
    <path fill-rule="evenodd" clip-rule="evenodd" d="M25.3849 20.6255C25.5158 20.7245 26.3018 21.3773 26.3018 22.6118C26.3018 26.821 19.6833 30.9599 13.832 30.9599C10.3426 30.9599 8.75187 29.2432 8.82231 27.7188H8.88485C9.02159 28.5104 10.1545 29.927 13.2086 29.927C19.0672 29.927 25.6086 25.6443 25.6086 21.892C25.6086 21.2483 25.4331 20.8473 25.334 20.6689L25.3849 20.6255Z" fill="#00984A"/>
    <path fill-rule="evenodd" clip-rule="evenodd" d="M27.597 24.5562C27.6245 24.6458 27.767 25.0488 27.767 25.6798C27.767 30.3622 21.069 34.3707 15.2436 34.3707C12.2454 34.3707 10.6797 32.9195 10.3491 32.3301L10.4025 32.2908C11.2321 33.0138 12.8662 33.5631 14.7731 33.5631C19.918 33.5631 27.595 29.6627 27.5264 24.5732L27.597 24.5562Z" fill="#DF002C"/>
</svg>
