<svg width="126" height="66" viewBox="0 0 126 66" fill="none" xmlns="http://www.w3.org/2000/svg">
<g clip-path="url(#clip0)">
<path d="M17.5427 17.325C9.79375 17.325 3.52527 23.5935 3.52527 31.3425C3.52527 39.0914 9.79375 45.3599 17.5427 45.3599C25.2917 45.3599 31.5602 39.0914 31.5602 31.3425C31.5917 23.5935 25.2917 17.325 17.5427 17.325Z" fill="#4A6F67"/>
<path d="M118.154 30.0517C119.634 30.0517 119.918 31.2802 119.981 32.4772H116.484C116.516 31.4377 116.831 30.0517 118.154 30.0517ZM118.343 36.9817C116.768 36.9817 116.484 35.6272 116.484 34.3042H123.068C123.068 31.1227 121.934 28.2562 118.248 28.2562C115.067 28.2562 113.46 30.8392 113.46 33.8002C113.46 36.8557 115.287 38.7772 118.343 38.7772C120.422 38.7772 122.564 37.8952 122.721 35.5642H120.075C119.855 36.5092 119.319 36.9817 118.343 36.9817ZM106.215 30.3667H104.01V26.4607H106.247C107.507 26.4607 108.546 26.9962 108.546 28.3822C108.546 29.7997 107.507 30.3667 106.215 30.3667ZM108.672 31.4377C110.436 30.9337 111.759 29.8627 111.759 27.9097C111.759 25.1692 109.208 24.2557 106.845 24.2557H100.923V38.5252H103.979V32.7292H106.373C109.113 32.7292 108.452 36.5407 108.893 38.5252H112.232C110.751 35.8162 112.578 32.1937 108.672 31.4377ZM94.7176 31.1542H92.0401C91.9771 30.4297 91.3156 30.0517 90.6226 30.0517C89.9926 30.0517 89.0791 30.2407 89.1106 31.0597C89.1421 31.6897 89.8351 31.8787 90.3391 32.0047L91.4731 32.2882C93.2056 32.6662 95.1901 33.3907 95.1901 35.4697C95.1901 37.9897 92.6071 38.7457 90.5281 38.7457C88.4806 38.7457 86.4646 37.8322 86.3071 35.6272H89.0476C89.1421 36.5092 89.8351 36.9502 90.6856 36.9502C91.4416 36.9502 92.4181 36.6352 92.4181 35.7217C92.4181 33.8317 86.4646 35.1862 86.4646 31.3432C86.4646 29.0122 88.7956 28.2562 90.7486 28.2562C92.5441 28.2562 94.3396 28.9807 94.6231 30.9337L94.7176 31.1542ZM84.9526 31.1542H82.2752C82.2122 30.4297 81.5507 30.0517 80.8577 30.0517C80.2277 30.0517 79.3142 30.2407 79.3457 31.0597C79.3772 31.6897 80.0702 31.8787 80.5742 32.0047L81.7082 32.2882C83.4407 32.6662 85.4251 33.3907 85.4251 35.4697C85.4251 37.9897 82.8422 38.7457 80.7632 38.7457C78.7157 38.7457 76.6997 37.8322 76.5422 35.6272H79.2827C79.3772 36.5092 80.0702 36.9502 80.9207 36.9502C81.6767 36.9502 82.6532 36.6352 82.6532 35.7217C82.6532 33.8317 76.6997 35.1862 76.6997 31.3432C76.6997 29.0122 79.0307 28.2562 80.9837 28.2562C82.7792 28.2562 84.5747 28.9807 84.8582 30.9337L84.9526 31.1542ZM71.8172 26.6812H74.9672V24.2242H71.8172V26.6812ZM71.9117 38.4937H74.8727V28.5397H71.9117V38.4937ZM63.5642 38.4937L62.1467 33.7687C61.8317 32.7292 61.6427 31.6897 61.4222 30.6502C61.2647 31.4062 61.1387 32.1622 60.9182 32.8867L60.6977 33.6742L59.3747 38.4937H55.8782L52.6338 28.5397H55.9727L57.3587 33.7372L57.5477 34.4617L57.7052 35.1547C57.7682 35.5642 57.8312 35.9737 57.8942 36.3832C58.0517 35.1862 58.3352 34.0522 58.6502 32.9182L59.8787 28.5397H63.2807L64.5722 33.1072C64.8872 34.1782 65.1077 35.2492 65.2652 36.3517L65.3597 35.7847C65.4857 34.8397 65.7377 33.9262 66.0212 32.9812L67.2497 28.5397H70.4312L67.0292 38.4937H63.5642ZM51.4683 28.2247H48.5388C48.5073 26.8387 47.4993 26.0512 46.1448 26.0512C44.9793 26.0512 43.6248 26.4922 43.6248 27.8782C43.6248 31.0282 51.9093 28.9492 51.9093 34.1467C51.9093 37.3282 49.1688 38.7772 46.2393 38.7772C42.9318 38.7772 40.1598 37.6117 40.1913 33.9892H43.3098C43.3098 35.5642 44.1603 36.6352 45.8298 36.6352C47.0583 36.6352 48.6963 36.1942 48.6963 34.7137C48.6963 31.4062 40.5378 33.6427 40.5378 28.2877C40.5378 25.1377 43.4673 23.9092 46.2078 23.9092C49.0743 23.9092 51.2793 25.2952 51.4683 28.2247Z" fill="#4A6F67"/>
<path d="M24.5671 24.2242H10.5497V27.1852H24.5671V24.2242Z" fill="white"/>
<path d="M24.4414 29.3897H21.3229V38.4931H24.4414V29.3897Z" fill="white"/>
<path d="M19.1179 29.3897H15.9994V38.4931H19.1179V29.3897Z" fill="white"/>
<path d="M13.7943 29.3897H10.6758V38.4931H13.7943V29.3897Z" fill="white"/>
<rect x="-31" y="63" width="188" height="3" fill="#0078D4"/>
</g>
<defs>
<clipPath id="clip0">
<rect width="126" height="66" fill="white"/>
</clipPath>
</defs>
</svg>
